<svg width="16" height="16" viewBox="0 0 16 16" fill="none" xmlns="http://www.w3.org/2000/svg">
<path d="M2 5H3.33333H14" stroke="#7D7DB3" stroke-width="2" stroke-linecap="round" stroke-linejoin="round"/>
<path d="M5.14286 4.6V2.3C5.14286 1.95522 5.29337 1.62456 5.56128 1.38076C5.82919 1.13696 6.19255 1 6.57143 1H9.42857C9.80745 1 10.1708 1.13696 10.4387 1.38076C10.7066 1.62456 10.8571 1.95522 10.8571 2.3V4.6M13 5V13.7C13 14.0448 12.8495 14.3754 12.5816 14.6192C12.3137 14.863 11.9503 15 11.5714 15H4.42857C4.04969 15 3.68633 14.863 3.41842 14.6192C3.15051 14.3754 3 14.0448 3 13.7V5H13Z" stroke="#7D7DB3" stroke-width="2" stroke-linecap="round" stroke-linejoin="round"/>
</svg>
